<svg id="Button_Primary_Pushed" data-name="Button/Primary/Pushed" xmlns="http://www.w3.org/2000/svg" width="144" height="40" viewBox="0 0 144 40">
  <g id="Tracé_3" data-name="Tracé 3" fill="#fafafa">
    <path d="M 124 39.5 L 20 39.5 C 17.36729049682617 39.5 14.81361770629883 38.98448944091797 12.40987300872803 37.96780014038086 C 10.087890625 36.98567199707031 8.002418518066406 35.57958221435547 6.211418151855469 33.78858184814453 C 4.420418262481689 31.99758148193359 3.01432728767395 29.912109375 2.03220009803772 27.59012794494629 C 1.015509128570557 25.18638229370117 0.5 22.63270950317383 0.5 20 C 0.5 17.36729049682617 1.015509128570557 14.81361770629883 2.03220009803772 12.40987300872803 C 3.01432728767395 10.087890625 4.420418262481689 8.002418518066406 6.211418151855469 6.211418151855469 C 8.002418518066406 4.420418262481689 10.087890625 3.01432728767395 12.40987300872803 2.03220009803772 C 14.81361770629883 1.015509128570557 17.36729049682617 0.5 20 0.5 L 124 0.5 C 126.6327056884766 0.5 129.1864013671875 1.015509128570557 131.5901336669922 2.03220009803772 C 133.9121246337891 3.01432728767395 135.9975891113281 4.420418262481689 137.78857421875 6.211418151855469 C 139.5796051025391 8.002418518066406 140.9856872558594 10.087890625 141.9678039550781 12.40987300872803 C 142.9844970703125 14.81361770629883 143.5 17.36729049682617 143.5 20 C 143.5 22.63270950317383 142.9844970703125 25.18638229370117 141.9678039550781 27.59012794494629 C 140.9856872558594 29.912109375 139.5796051025391 31.99758148193359 137.78857421875 33.78858184814453 C 135.9975891113281 35.57958221435547 133.9121246337891 36.98567199707031 131.5901336669922 37.96780014038086 C 129.1864013671875 38.98448944091797 126.6327056884766 39.5 124 39.5 Z" stroke="none"/>
    <path d="M 20 1 C 17.43457794189453 1 14.94642639160156 1.502220153808594 12.60464477539062 2.492698669433594 C 10.34225463867188 3.449619293212891 8.310226440429688 4.819721221923828 6.564956665039062 6.564960479736328 C 4.819717407226562 8.310220718383789 3.449615478515625 10.34226036071777 2.492706298828125 12.60463905334473 C 1.502212524414062 14.94642066955566 1 17.43457984924316 1 20 C 1 22.56542015075684 1.502212524414062 25.05358123779297 2.492706298828125 27.39535903930664 C 3.449615478515625 29.65773963928223 4.819717407226562 31.68978118896484 6.564956665039062 33.43503952026367 C 8.310226440429688 35.18027877807617 10.34225463867188 36.55038070678711 12.60464477539062 37.50730133056641 C 14.94642639160156 38.49777984619141 17.43457794189453 39 20 39 L 124 39 C 126.5654220581055 39 129.0535736083984 38.49777984619141 131.3953552246094 37.50730133056641 C 133.6577453613281 36.55038070678711 135.6897735595703 35.18027877807617 137.4350433349609 33.43503952026367 C 139.1802825927734 31.68978118896484 140.5503845214844 29.65773963928223 141.5072937011719 27.39535903930664 C 142.4977874755859 25.05358123779297 143 22.56542015075684 143 20 C 143 17.43457984924316 142.4977874755859 14.94642066955566 141.5072937011719 12.60463905334473 C 140.5503845214844 10.34226036071777 139.1802825927734 8.310220718383789 137.4350433349609 6.564960479736328 C 135.6897735595703 4.819721221923828 133.6577453613281 3.449619293212891 131.3953552246094 2.492698669433594 C 129.0535736083984 1.502220153808594 126.5654220581055 1 124 1 L 20 1 M 20 0 L 124 0 C 135.0457000732422 0 144 8.954299926757812 144 20 C 144 31.04570007324219 135.0457000732422 40 124 40 L 20 40 C 8.954299926757812 40 0 31.04570007324219 0 20 C 0 8.954299926757812 8.954299926757812 0 20 0 Z" stroke="none" fill="#3e978b"/>
  </g>
  <text id="BUTTON" transform="translate(39 27)" fill="#2c2c2c" font-size="16" font-family="Lato-Bold, Lato" font-weight="700"><tspan x="0" y="0">BUTTON</tspan></text>
</svg>
